<?xml version="1.0" encoding="UTF-8"?>
<svg width="50" height="50" version="1.1" viewBox="0 0 400 400" xmlns="http://www.w3.org/2000/svg">
 <path d="m0 208c5.1306 81.164 58.361 160.15 140.56 182.21 119.64 41.895 257.79-56.68 259.44-182.21h-200.6a92.098 92 0 0 1 -91.697 84 92.098 92 0 0 1 -91.685 -84h-16.019z" fill="#b3b4b8"/>
 <path d="m198.81 0.0077484c-64.157 0.54295-128.16 29.616-163.82 86.221-23.275 31.411-34.259 68.441-34.842 105.77h16.359a92 92 0 0 1 91.6 -84 92 92 0 0 1 91.588 84h200.16c-1.464-42.325-16.78-84.038-43.201-117.16-37.174-50.671-97.579-75.338-157.85-74.828z" fill="#000000"/>
</svg>