<?xml version="1.0" encoding="utf-8"?>
<svg id="master-artboard" viewBox="0 30 304.772216796875 386.75164794921875" version="1.1" xmlns="http://www.w3.org/2000/svg" x="0px" y="0px" style="enable-background:new 0 0 1400 980;" width="304.772216796875px" height="386.75164794921875px" xmlns:xlink="http://www.w3.org/1999/xlink"><rect id="ee-background" x="0" y="0" width="304.772216796875" height="386.75164794921875" style="fill: white; fill-opacity: 0; pointer-events: none;"/><defs><clipPath id="clip0"><path d="M 0 0 H 1280 V 720 H 0 V 0 Z"/></clipPath><clipPath id="clip1"><path d="M 733 204 H 934 V 479 H 733 V 204 Z"/></clipPath><clipPath id="clip2"><path d="M 733 204 H 934 V 479 H 733 V 204 Z"/></clipPath><clipPath id="clip3"><path d="M 733 204 H 934 V 479 H 733 V 204 Z"/></clipPath><clipPath id="clip4"><path d="M807.946 356.026 864.424 387.497 860.201 452.176 803.723 420.705Z"/></clipPath><clipPath id="path-1"><path d="M 0 0 H 1280 V 720 H 0 V 0 Z"/></clipPath><clipPath id="path-2"><path d="M 733 204 H 934 V 479 H 733 V 204 Z"/></clipPath><clipPath id="path-3"><path d="M 733 204 H 934 V 479 H 733 V 204 Z"/></clipPath><clipPath id="path-4"><path d="M 733 204 H 934 V 479 H 733 V 204 Z"/></clipPath><clipPath id="path-5"><path d="M807.946 356.026 864.424 387.497 860.201 452.176 803.723 420.705Z"/></clipPath><clipPath id="path-6"><path d="M 0 0 H 1280 V 720 H 0 V 0 Z"/></clipPath><clipPath id="path-7"><path d="M 521 311 H 799 V 586 H 521 V 311 Z"/></clipPath><clipPath id="path-8"><path d="M 521 311 H 799 V 586 H 521 V 311 Z"/></clipPath><clipPath id="path-9"><path d="M 521 311 H 799 V 586 H 521 V 311 Z"/></clipPath><clipPath id="path-10"><path d="M 0 0 H 556336 V 324524 H 0 V 0 Z"/></clipPath><image width="500" height="150" preserveAspectRatio="none" id="img5" xlink:href=""/><clipPath id="clip6"><path d="M249301 662428 805601 662428 805601 986952 249301 986952Z" fill-rule="evenodd" clip-rule="evenodd"/></clipPath><clipPath id="clip7"><path d="M 0 0 H 267023 V 420914 H 0 V 0 Z"/></clipPath><image width="48" height="75" preserveAspectRatio="none" id="img8" xlink:href=""/><clipPath id="clip15"><path d="M249301 662428 805601 662428 805601 986952 249301 986952Z" fill-rule="evenodd" clip-rule="evenodd"/></clipPath><clipPath id="clip16"><path d="M 0 0 H 267023 V 420914 H 0 V 0 Z"/></clipPath><image width="48" height="75" preserveAspectRatio="none" id="img17" xlink:href=""/><clipPath id="clip18"><path d="M 0 0 H 267023 V 417223 H 0 V 0 Z"/></clipPath></defs>
<path d="M 0 0 H 1280 V 720 H 0 V 0 Z" fill="#FFFFFF" transform="matrix(1.09375, 0, 0, 1.09375, -716.3232460021973, -151.28255462646484)"/><path d="M 0 0 H 1280 V 720 H 0 V 0 Z" fill="#FFFFFF" transform="matrix(0.8096902966499329, 0, 0, 0.8096902966499329, -673.4544787661189, -130.01721954345703)" style="fill-opacity: 0;"/><g clip-path="url(#clip10)" transform="matrix(0.8096902966499329, 0, 0, 0.8096902966499329, -673.4544787661189, -130.01721954345703)"><g clip-path="url(#clip11)"><g clip-path="url(#clip12)"><path d="M0.00386692 174.858 0.00173897 26.3935 208.845 120.971 208.845 273.834 0.00386692 174.858Z" fill="#E7C1C7" fill-rule="evenodd" transform="matrix(1 0 0 1.00061 928 322)"/><path d="M59.3594 0 0.0038644 26.3946 208.848 120.971 276.998 91.2785 59.3594 0Z" fill="#FED1D1" fill-rule="evenodd" transform="matrix(1 0 0 1.00061 928 322)"/><path d="M271.498 240.841 208.844 273.834 208.842 120.97 276.992 91.2775 271.498 240.841Z" fill="#B99096" fill-rule="evenodd" transform="matrix(1 0 0 1.00061 928 322)"/><path d="M0.00372203 174.855 0 68.8508 100.479 175.485 208.844 163.428 208.845 273.831 0.00372203 174.855Z" fill="#D3B694" fill-rule="evenodd" transform="matrix(1 0 0 1.00061 928 322)"/><path d="M271.496 240.841 208.842 273.834 208.844 163.375 275.314 134.97 271.496 240.841Z" fill="#8A7760" fill-rule="evenodd" transform="matrix(1 0 0 1.00061 928 322)"/><path d="M117.054 156.815C117.054 155.672 118.227 154.906 119.273 155.365L194.302 188.306C195.453 188.811 196.195 189.948 196.195 191.204L196.195 248.635C196.195 249.805 194.97 250.571 193.919 250.058L118.833 213.475C117.745 212.945 117.054 211.84 117.054 210.629L117.054 156.815Z" fill="#FFFFFF" fill-rule="evenodd" transform="matrix(1 0 0 1.00061 928 322)"/><path d="M125.564 176.322C125.161 177.566 126.001 179.115 127.44 179.776L182.277 205.034C183.717 205.697 185.21 205.225 185.614 203.981 186.017 202.736 185.177 201.189 183.738 200.526L128.9 175.268C127.461 174.605 125.967 175.077 125.564 176.322Z" fill="#3B4A57" fill-rule="evenodd" transform="matrix(1 0 0 1.00061 928 322)"/><path d="M125.564 198.218C125.161 199.464 126.001 201.01 127.44 201.673L182.277 226.931C183.717 227.594 185.21 227.123 185.614 225.877 186.017 224.633 185.177 223.085 183.738 222.423L128.9 197.165C127.461 196.502 125.967 196.974 125.564 198.218Z" fill="#3B4A57" fill-rule="evenodd" transform="matrix(1 0 0 1.00061 928 322)"/><path d="M64.5727 125.342 22.5269 105.959 22.2048 125.381 64.2505 144.764 64.5727 125.342ZM68.0765 126.957 67.5611 158.033 92.0878 169.34 92.6032 138.264 68.0765 126.957ZM92.0234 173.225 67.4968 161.917 67.0459 189.109 91.5726 200.417 92.0234 173.225ZM63.5421 187.494 63.7998 171.955 21.754 152.572 21.4963 168.111 63.5421 187.494ZM21.8184 148.688 63.8642 168.071 64.1861 148.649 22.1404 129.265 21.8184 148.688ZM74.9553 137.957 74.6976 153.495 78.2014 155.11 78.2658 151.226 81.7696 152.841C83.7048 153.733 85.3022 152.717 85.3378 150.572L85.4023 146.687C85.4379 144.542 83.8979 142.079 81.9629 141.187L74.9553 137.957ZM81.8985 145.072 81.834 148.956 78.3302 147.341 78.3946 143.457 81.8985 145.072Z" fill="#3B4A57" fill-rule="evenodd" transform="matrix(1 0 0 1.00061 928 322)"/></g></g></g><path d="M883.5 311.5 883.5 531.356" stroke="#000000" stroke-width="1.33333" stroke-miterlimit="8" stroke-dasharray="5.33333 4" fill="none" fill-rule="evenodd" transform="matrix(0.8096902966499329, 0, 0, 0.8096902966499329, -673.4544787661189, -130.01721954345703)"/><path d="M884.5 532.5 1095.4 631.189" stroke="#000000" stroke-width="1.33333" stroke-miterlimit="8" stroke-dasharray="5.33333 4" fill="none" fill-rule="evenodd" transform="matrix(0.8096902966499329, 0, 0, 0.8096902966499329, -673.4544787661189, -130.01721954345703)"/><path d="M0 0 140.907 146.6" stroke="#000000" stroke-width="1.33333" stroke-miterlimit="8" stroke-dasharray="5.33333 4" fill="none" fill-rule="evenodd" transform="matrix(0.8096902966499329, 0, 0, -0.8096902966499329, 41.906982421875, 121.87744140625)"/><g clip-path="url(#clip13)" transform="matrix(0.0000592451287957374, -0.00006096045399317518, 0.00006096045399317518, 0.0000592451287957374, 62.954833984375, 119.0030517578125)"><g clip-path="url(#clip15)" transform="matrix(1.00006 -2.23118e-08 4.05404e-08 1 -249317 -662428)"><use width="100%" height="100%" transform="scale(7158.67 7158.67)" xlink:href="#img14"/></g></g><g clip-path="url(#clip16)" transform="matrix(0.000055294578487519175, -0.0000645653490209952, 0.0000645653490209952, 0.000055294578487519175, -0.2933349609375, 106.82449340820312)"><g clip-path="url(#clip18)" transform="matrix(1 -3.09277e-08 2.8548e-08 1.00885 0 0)"><use width="100%" height="100%" transform="scale(5562.98 5562.98)" xlink:href="#img17"/></g></g></svg>