<?xml version="1.0" encoding="utf-8"?>
<svg id="master-artboard" viewBox="0 0 1025.243896484375 455.89483642578125" version="1.1" xmlns="http://www.w3.org/2000/svg" x="0px" y="0px" style="enable-background:new 0 0 336 235.2;" ><rect id="ee-background" x="0" y="100px" width="1025.243896484375" height="455.89483642578125" style="fill: white; fill-opacity: 0; pointer-events: none;"/><path d="M63.69172,44.81383c-0.62661-1.75697-1.91092-3.12349-3.61652-3.87351s-3.5858-0.7603-5.30169-0.03085L43.2661,45.76935   c0.01028-0.13358,0.02057-0.28772,0.02057-0.43158c0-2.23984-1.81861-4.05838-4.05851-4.05838h-8.30176   c-0.33914,0-0.66787-0.07193-0.97603-0.21579l-7.03815-3.17485c-1.09932-0.50344-2.32205-0.77059-3.53437-0.77059h-5.95927   v-0.57537c0-1.13017-0.91432-2.0549-2.0549-2.0549H0v25.93287h11.36368c1.14058,0,2.0549-0.92467,2.0549-2.0549v-1.61304h3.29808   l12.27812,3.94538c1.01717,0.31851,2.06519,0.48294,3.12337,0.48294c1.66459,0,3.32893-0.40072,4.80853-1.19188L64,45.64606   L63.69172,44.81383z M7.22301,56.60895c-0.79116,0-1.43833-0.6473-1.43833-1.43846c0-0.80138,0.64717-1.44868,1.43833-1.44868   s1.43846,0.6473,1.43846,1.44868C8.66147,55.96165,8.01417,56.60895,7.22301,56.60895z M35.97109,58.1707   c-1.94178,1.03767-4.25354,1.23289-6.34958,0.56508l-12.43214-3.9968l-3.77079-0.04108V39.17307h5.95927   c0.92461,0,1.84946,0.2055,2.68163,0.58566l7.03802,3.18514c0.57543,0.25686,1.19188,0.39043,1.82889,0.39043h8.30176   c1.1096,0,2.0036,0.9041,2.0036,2.00348c0,1.10966-0.894,2.00354-2.0036,2.00354h-10.7471v2.0549h10.7471   c0.75014,0,1.44874-0.19522,2.04474-0.5548L55.57495,42.8c1.19175-0.50344,2.49664-0.49316,3.67836,0.02057   c0.90404,0.40066,1.64377,1.05824,2.13693,1.89048L35.97109,58.1707z" transform="matrix(15.3125, 0, 0, 15.3125, 28.844833374023438, -506.1279608328017)"/></svg>