<?xml version="1.0" encoding="utf-8"?><svg id="master-artboard" viewBox="0 0 178.9315948486328 271.97393798828125" version="1.1" xmlns="http://www.w3.org/2000/svg" x="0px" y="0px" style="enable-background:new 0 0 1400 980;" width="140" height="200"><defs><clipPath id="clip0"><path d="M 0 0 H 1280 V 720 H 0 V 0 Z"/></clipPath><clipPath id="clip1"><path d="M 733 204 H 934 V 479 H 733 V 204 Z"/></clipPath><clipPath id="clip2"><path d="M 733 204 H 934 V 479 H 733 V 204 Z"/></clipPath><clipPath id="clip3"><path d="M 733 204 H 934 V 479 H 733 V 204 Z"/></clipPath><clipPath id="clip4"><path d="M807.946 356.026 864.424 387.497 860.201 452.176 803.723 420.705Z"/></clipPath><clipPath id="path-1"><path d="M 0 0 H 1280 V 720 H 0 V 0 Z"/></clipPath><clipPath id="path-2"><path d="M 733 204 H 934 V 479 H 733 V 204 Z"/></clipPath><clipPath id="path-3"><path d="M 733 204 H 934 V 479 H 733 V 204 Z"/></clipPath><clipPath id="path-4"><path d="M 733 204 H 934 V 479 H 733 V 204 Z"/></clipPath><clipPath id="path-5"><path d="M807.946 356.026 864.424 387.497 860.201 452.176 803.723 420.705Z"/></clipPath></defs><rect id="ee-background" x="0" y="0" width="178.9315948486328" height="271.97393798828125" style="fill: white; fill-opacity: 1; pointer-events: none;"/><path d="M 0 0 H 1280 V 720 H 0 V 0 Z" fill="#FFFFFF" transform="matrix(1.09375, 0, 0, 1.09375, -42.868778228759766, 65.8270034790039)"/><g clip-path="url(#clip1)" transform="matrix(1.09375, 0, 0, 1.09375, -821.4208984375, -238.4029541015625)"><g clip-path="url(#clip2)"><g clip-path="url(#clip3)"><path d="M41.2301 28.2059 142.894 81.2344 129.611 257.263 29.492 200.488 41.2301 28.2059Z" fill="#D3B694" fill-rule="evenodd" transform="matrix(1 0 0 1.00332 733 204)"/><path d="M36.4815 83.8997 59.0086 149.021 138.145 136.928 129.61 257.262 29.4907 200.487 36.4815 83.8997Z" fill="#345D67" fill-rule="evenodd" transform="matrix(1 0 0 1.00332 733 204)"/><path d="M48 47.1941C48.0814 45.9984 49.3634 45.2793 50.4259 45.8331L105.952 74.7833C107.122 75.3931 107.819 76.6373 107.73 77.9534L104.777 121.282C104.694 122.506 103.358 123.221 102.294 122.611L46.8975 90.8758C45.7943 90.2439 45.1489 89.0375 45.2355 87.7689L48 47.1941Z" fill="#FFFFFF" fill-rule="evenodd" transform="matrix(1 0 0 1.00332 733 204)"/><path d="M52.656 61.5957C52.0892 63.0079 52.9429 64.8675 54.5632 65.7496L95.8702 88.2363C97.4903 89.1184 99.2633 88.6887 99.8302 87.2765 100.397 85.8644 99.5433 84.0047 97.9232 83.1228L56.6162 60.6359C54.9961 59.754 53.223 60.1837 52.656 61.5957Z" fill="#3B4A57" fill-rule="evenodd" transform="matrix(1 0 0 1.00332 733 204)"/><path d="M51.4974 78.5913C50.9304 80.0035 51.7842 81.8631 53.4044 82.7452L94.7114 105.232C96.3315 106.114 98.1044 105.684 98.6714 104.272 99.2383 102.86 98.3845 101 96.7644 100.118L55.4574 77.6315C53.8373 76.7496 52.0643 77.1794 51.4974 78.5913Z" fill="#3B4A57" fill-rule="evenodd" transform="matrix(1 0 0 1.00332 733 204)"/><path d="M41.2286 28.2061 67.7433 15.8988 171.794 71.6535 142.887 81.2324 41.2286 28.2061Z" fill="#F7DCBC" fill-rule="evenodd" transform="matrix(1 0 0 1.00332 733 204)"/><path d="M171.79 71.653 142.892 81.2344 129.568 257.255 159.072 238.74 171.79 71.653Z" fill="#8A7760" fill-rule="evenodd" transform="matrix(1 0 0 1.00332 733 204)"/><path d="M167.094 134.934 138.642 136.901 129.566 257.253 159.071 238.738 167.094 134.934Z" fill="#223D43" fill-rule="evenodd" transform="matrix(1 0 0 1.00332 733 204)"/><g clip-path="url(#clip4)"><path d="M94.5595 179.118 99.1013 181.641C100.037 182.161 100.963 182.234 101.674 181.847 102.385 181.458 102.824 180.641 102.894 179.573 102.964 178.505 102.66 177.272 102.047 176.149 101.435 175.026 100.565 174.104 99.6291 173.584L92.5705 169.664C92.1693 169.44 91.7728 169.408 91.4678 169.574 91.163 169.74 90.9749 170.093 90.9449 170.549L90.3417 179.757 94.3751 181.998 94.5595 179.118Z" fill="#D9BFAD" transform="matrix(1 0 0 1.00332 733 204)"/><path d="M118.499 198.973 95.1272 185.993C95.0338 185.942 94.9404 185.922 94.8575 185.933 94.7747 185.945 94.7054 185.99 94.6574 186.063 94.6094 186.134 94.5846 186.231 94.5856 186.342 94.5868 186.452 94.6137 186.573 94.6635 186.689 95.8021 189.274 96.335 191.958 96.1798 194.33L95.1242 210.444C95.1142 210.596 95.1577 210.773 95.2453 210.934 95.3328 211.093 95.4571 211.226 95.5908 211.299L101.137 214.381C101.27 214.454 101.459 214.56 101.641 214.66 101.631 214.804 101.613 215.083 101.603 215.236L101.226 220.989C101.186 221.6 101.034 223.921 100.999 224.454 102.396 225.23 103.735 225.972 105.033 226.693 105.068 226.155 105.22 223.839 105.26 223.23L105.637 217.475C105.647 217.323 105.662 217.09 105.674 216.901 105.84 216.992 106.045 217.107 106.178 217.18L120.856 225.333C120.984 225.394 121.107 225.396 121.199 225.334 121.291 225.274 121.344 225.157 121.348 225.009L122.554 206.593C122.661 205.251 122.294 203.696 121.534 202.267 120.773 200.837 119.682 199.653 118.499 198.973Z" fill="#D9BFAD" transform="matrix(1 0 0 1.00332 733 204)"/><path d="M80.0457 185.37 78.99 201.483C78.98 201.636 78.99 201.483 78.9523 202.058 79.1493 202.168 79.3229 202.264 79.4566 202.339L91.557 209.06C91.6907 209.133 91.8877 209.243 92.0612 209.339 92.0989 208.764 92.0887 208.917 92.0989 208.764L93.1544 192.651C93.2844 190.666 92.7185 188.38 91.5812 186.294 90.4439 184.207 88.8284 182.495 87.0901 181.528 85.3517 180.563 83.6331 180.425 82.312 181.146 80.9909 181.867 80.1756 183.385 80.0457 185.37ZM88.9465 201.048C88.9266 201.354 88.8011 201.588 88.5978 201.699 88.3947 201.809 88.1302 201.789 87.8627 201.64L83.8293 199.4C83.5618 199.251 83.3133 198.987 83.1384 198.666 82.9633 198.345 82.8763 197.993 82.8964 197.689 82.9163 197.384 83.0417 197.149 83.2451 197.038 83.4482 196.929 83.7127 196.948 83.9801 197.098L88.0136 199.337C88.281 199.487 88.5295 199.751 88.7045 200.071 88.8794 200.392 88.9666 200.744 88.9465 201.048Z" fill="#D9BFAD" transform="matrix(1 0 0 1.00332 733 204)"/></g></g></g></g></svg>