<svg style="enable-background:new 0 0 35 35;" version="1.1" viewBox="0 0 35 35" xml:space="preserve" xmlns="http://www.w3.org/2000/svg" xmlns:xlink="http://www.w3.org/1999/xlink"><style type="text/css">
	.st0{opacity:0.2;fill:none;stroke:#000000;stroke-width:5.000000e-02;stroke-miterlimit:10;}
</style><g id="Layer_1"/><g id="Layer_2"><g><path d="M12,10c-0.6,0-1,0.4-1,1v5c0,0.6,0.4,1,1,1s1-0.4,1-1v-5C13,10.4,12.6,10,12,10z"/><circle cx="12" cy="8" r="1"/><path d="M12,2C6.5,2,2,6.5,2,12s4.5,10,10,10s10-4.5,10-10S17.5,2,12,2z M12,20c-4.4,0-8-3.6-8-8s3.6-8,8-8s8,3.6,8,8    S16.4,20,12,20z"/></g></g></svg>