<?xml version="1.0" encoding="utf-8"?><svg id="master-artboard" viewBox="0 0 484.54449462890625 552.6951904296875" version="1.1" xmlns="http://www.w3.org/2000/svg" x="0px" y="0px" style="enable-background:new 0 0 336 235.2;" width="483.54449462890625px" height="552.6951904296875px" xmlns:xlink="http://www.w3.org/1999/xlink"><defs><clipPath id="clip0"><path d="M 0 0 H 1280 V 720 H 0 V 0 Z"/></clipPath><clipPath id="clip1"><path d="M 822 244 H 1025 V 459 H 822 V 244 Z"/></clipPath><clipPath id="clip2"><path d="M 822 244 H 1025 V 459 H 822 V 244 Z"/></clipPath><clipPath id="clip3"><path d="M 822 244 H 1025 V 459 H 822 V 244 Z"/></clipPath><clipPath id="clip4"><path d="M 0 0 H 4191000 V 2619380 H 0 V 0 Z"/></clipPath><image width="841" height="525" preserveAspectRatio="none" id="img5" xlink:href=""/><clipPath id="clip6"><path d="M 0 0 H 4191000 V 2616260 H 0 V 0 Z"/></clipPath></defs><rect id="ee-background" x="0" y="0" width="484.54449462890625" height="552.6951904296875" style="fill: white; fill-opacity: 0; pointer-events: none;"/><path d="M 0 0 H 1280 V 720 H 0 V 0 Z" fill="#FFFFFF" transform="matrix(1.0440534353256226, 0, 0, 1.0440534353256226, -611.2255971156364, -121.63744354248047)"/><g clip-path="url(#clip1)" transform="matrix(1.0440534353256226, 0, 0, 1.0440534353256226, -611.2255971156364, -121.63744354248047)"><g clip-path="url(#clip2)"><g clip-path="url(#clip3)"><path d="M188.423 157.337 89.9072 200.69 89.9072 202.882 89.9072 205.423 107.364 214.878 202.326 169.164 202.326 166.209 202.326 164.432 188.423 157.337Z" fill="#CDAA7F" transform="matrix(1 0 0 1.00057 822 244)"/><path d="M141.103 136.043 42.5878 179.397 42.5878 181.589 42.5878 184.129 60.0449 193.584 155.008 147.87 155.008 144.916 155.008 143.139 141.103 136.043Z" fill="#CDAA7F" transform="matrix(1 0 0 1.00057 822 244)"/><path d="M98.516 111.201 0 154.554 0 156.746 0 159.287 17.4571 168.742 112.42 123.028 112.42 120.073 112.42 118.296 98.516 111.201Z" fill="#CDAA7F" transform="matrix(1 0 0 1.00057 822 244)"/><path d="M107.98 214.582 107.98 192.738 188.423 157.337 202.327 164.432 202.327 169.164 107.98 214.582Z" fill="#B48E60" transform="matrix(1 0 0 1.00057 822 244)"/><path d="M60.6606 193.287 60.6606 171.444 141.103 136.043 155.008 143.139 155.008 147.87 60.6606 193.287Z" fill="#B48E60" transform="matrix(1 0 0 1.00057 822 244)"/><path d="M18.0732 168.445 18.0732 146.601 98.5162 111.201 112.42 118.295 112.42 123.028 18.0732 168.445Z" fill="#B48E60" transform="matrix(1 0 0 1.00057 822 244)"/><path d="M89.9072 200.69 188.423 157.337 202.326 164.432 107.364 210.146 89.9072 200.69Z" fill="#F6DCBC" fill-rule="evenodd" transform="matrix(1 0 0 1.00057 822 244)"/><path d="M89.9072 183.363 107.651 191.645 107.803 210.573 90.1243 200.921 89.9072 183.363Z" fill="#D3B694" fill-rule="evenodd" transform="matrix(1 0 0 1.00057 822 244)"/><path d="M42.5878 162.07 60.3313 170.35 60.4834 189.278 42.8049 179.628 42.5878 162.07Z" fill="#D3B694" fill-rule="evenodd" transform="matrix(1 0 0 1.00057 822 244)"/><path d="M0.00013181 137.227 17.7436 145.508 17.8957 164.435 0.21729 154.785 0.00013181 137.227Z" fill="#D3B694" fill-rule="evenodd" transform="matrix(1 0 0 1.00057 822 244)"/><path d="M132.494 163.252 150.238 171.534 150.391 190.462 132.711 180.81 132.494 163.252Z" fill="#D3B694" fill-rule="evenodd" transform="matrix(1 0 0 1.00057 822 244)"/><path d="M169.167 145.508 186.911 153.789 187.063 172.716 169.384 163.066 169.167 145.508Z" fill="#D3B694" fill-rule="evenodd" transform="matrix(1 0 0 1.00057 822 244)"/><path d="M121.848 185.138 107.65 191.644 107.65 210.571 122.439 202.882 121.848 185.138Z" fill="#8A7760" fill-rule="evenodd" transform="matrix(1 0 0 1.00057 822 244)"/><path d="M74.5284 163.844 60.3304 170.35 60.3304 189.278 75.1199 181.588 74.5284 163.844Z" fill="#8A7760" fill-rule="evenodd" transform="matrix(1 0 0 1.00057 822 244)"/><path d="M31.941 139.001 17.7428 145.508 17.7428 164.435 32.5324 156.745 31.941 139.001Z" fill="#8A7760" fill-rule="evenodd" transform="matrix(1 0 0 1.00057 822 244)"/><path d="M164.435 165.027 150.237 171.534 150.237 190.462 165.027 182.771 164.435 165.027Z" fill="#8A7760" fill-rule="evenodd" transform="matrix(1 0 0 1.00057 822 244)"/><path d="M201.108 147.282 186.91 153.789 186.91 172.716 201.7 165.026 201.108 147.282Z" fill="#8A7760" fill-rule="evenodd" transform="matrix(1 0 0 1.00057 822 244)"/><path d="M94.9635 97.0047 0 135.626 0 139.001 0 143.906 107.06 200.685 202.023 154.971 202.023 150.239 202.023 146.69 94.9635 97.0047Z" fill="#C5A175" transform="matrix(1 0 0 1.00057 822 244)"/><path d="M107.652 200.4 107.652 102.893 202.023 146.69 202.023 154.971 107.652 200.4Z" fill="#A58053" transform="matrix(1 0 0 1.00057 822 244)"/><path d="M0 135.626 94.9632 97.0047 202.023 146.69 107.06 192.404 0 135.626Z" fill="#E8CCA9" fill-rule="evenodd" transform="matrix(1 0 0 1.00057 822 244)"/><path d="M188.095 134.861 89.5788 178.213 89.5788 180.405 89.5788 182.946 107.036 192.401 201.998 146.687 201.998 143.733 201.998 141.955 188.095 134.861Z" fill="#CDAA7F" transform="matrix(1 0 0 1.00057 822 244)"/><path d="M107.652 192.105 107.652 170.261 188.095 134.861 201.999 141.955 201.999 146.687 107.652 192.105Z" fill="#B48E60" transform="matrix(1 0 0 1.00057 822 244)"/><path d="M89.5788 178.213 188.095 134.861 201.998 141.955 107.036 187.669 89.5788 178.213Z" fill="#F6DCBC" fill-rule="evenodd" transform="matrix(1 0 0 1.00057 822 244)"/><path d="M163.58 123.031 65.0642 166.384 65.0642 168.575 65.0642 171.116 82.5213 180.571 177.484 134.857 177.484 131.902 177.484 130.125 163.58 123.031Z" fill="#CDAA7F" transform="matrix(1 0 0 1.00057 822 244)"/><path d="M83.1366 180.275 83.1366 158.431 163.58 123.031 177.484 130.125 177.484 134.857 83.1366 180.275Z" fill="#B48E60" transform="matrix(1 0 0 1.00057 822 244)"/><path d="M65.0642 166.383 163.58 123.031 177.484 130.125 82.521 175.839 65.0642 166.383Z" fill="#F6DCBC" fill-rule="evenodd" transform="matrix(1 0 0 1.00057 822 244)"/><path d="M120.992 100.554 22.4767 143.908 22.4767 146.098 22.4767 148.639 39.9339 158.094 134.897 112.38 134.897 109.427 134.897 107.648 120.992 100.554Z" fill="#CDAA7F" transform="matrix(1 0 0 1.00057 822 244)"/><path d="M40.5499 157.798 40.5499 135.954 120.993 100.554 134.897 107.648 134.897 112.38 40.5499 157.798Z" fill="#B48E60" transform="matrix(1 0 0 1.00057 822 244)"/><path d="M22.4767 143.908 120.992 100.554 134.896 107.648 39.9336 153.362 22.4767 143.908Z" fill="#F6DCBC" fill-rule="evenodd" transform="matrix(1 0 0 1.00057 822 244)"/><path d="M142.287 111.201 43.7706 154.554 43.7706 156.746 43.7706 159.287 61.2277 168.742 156.19 123.028 156.19 120.073 156.19 118.296 142.287 111.201Z" fill="#CDAA7F" transform="matrix(1 0 0 1.00057 822 244)"/><path d="M61.8434 168.445 61.8434 146.601 142.287 111.201 156.19 118.295 156.19 123.028 61.8434 168.445Z" fill="#B48E60" transform="matrix(1 0 0 1.00057 822 244)"/><path d="M43.7706 154.554 142.287 111.201 156.19 118.296 61.2274 164.01 43.7706 154.554Z" fill="#F6DCBC" fill-rule="evenodd" transform="matrix(1 0 0 1.00057 822 244)"/><path d="M98.516 89.9071 0 133.261 0 135.452 0 137.992 17.4571 147.447 112.42 101.734 112.42 98.7795 112.42 97.0016 98.516 89.9071Z" fill="#CDAA7F" transform="matrix(1 0 0 1.00057 822 244)"/><path d="M18.0732 147.151 18.0732 125.307 98.5162 89.9071 112.42 97.0016 112.42 101.734 18.0732 147.151Z" fill="#B48E60" transform="matrix(1 0 0 1.00057 822 244)"/><path d="M0 133.26 98.516 89.9071 112.419 97.0016 17.4568 142.715 0 133.26Z" fill="#F6DCBC" fill-rule="evenodd" transform="matrix(1 0 0 1.00057 822 244)"/><path d="M22.648 25.4343 118.47 66.1041 112.047 175.674 24.0011 131.622 22.648 25.4343Z" fill="#D3B694" fill-rule="evenodd" transform="matrix(1 0 0 1.00057 822 244)"/><path d="M183.363 35.4896 118.299 66.2472 111.201 175.082 174.508 142.785 183.363 35.4896Z" fill="#8A7760" fill-rule="evenodd" transform="matrix(1 0 0 1.00057 822 244)"/><path d="M22.8468 67.4303 43.5164 107.525 115.945 107.369 111.335 176.573 23.6462 132.494 22.8468 67.4303Z" fill="#5F7481" fill-rule="evenodd" transform="matrix(1 0 0 1.00057 822 244)"/><path d="M179.814 75.7111 115.342 107.06 111.201 176.264 174.404 143.494 179.814 75.7111Z" fill="#405059" fill-rule="evenodd" transform="matrix(1 0 0 1.00057 822 244)"/><path d="M22.4767 26.3755 87.3762 0 183.363 35.028 118.463 66.2472 22.4767 26.3755Z" fill="#F6DCBC" fill-rule="evenodd" transform="matrix(1 0 0 1.00057 822 244)"/><path d="M156.722 48.0587 144.281 53.9802 51.9761 14.0533 62.6621 9.02264 156.722 48.0587Z" fill="#FBF9E9" transform="matrix(1 0 0 1.00057 822 244)"/><path d="M59.0782 11.7023 149.998 51.1202" stroke="#D3B694" stroke-width="1.61968" stroke-linecap="round" stroke-linejoin="round" fill="none" transform="matrix(1 0 0 1.00057 822 244)"/><path d="M50.7964 70.2185C50.8239 69.4519 51.6192 68.9576 52.3186 69.2723L67.4628 76.0877C68.2627 76.4477 68.7654 77.2558 68.7348 78.1323L67.6618 108.93C67.6345 109.716 66.8036 110.21 66.1003 109.859L50.9148 102.274C50.1577 101.896 49.6912 101.111 49.7215 100.265L50.7964 70.2185Z" fill="#FFFFFF" fill-rule="evenodd" transform="matrix(1 0 0 1.00057 822 244)"/><path d="M65.5624 87.0854 54.1369 81.8414" stroke="#262C30" stroke-width="1.07979" stroke-linecap="round" stroke-linejoin="round" fill="none" transform="matrix(1 0 0 1.00057 822 244)"/><path d="M57.9547 75.1197 54.4054 73.5603" stroke="#262C30" stroke-width="1.07979" stroke-linecap="round" stroke-linejoin="round" fill="none" transform="matrix(1 0 0 1.00057 822 244)"/><path d="M64.6473 91.6325 53.2217 86.3886" stroke="#262C30" stroke-width="1.07979" stroke-linecap="round" stroke-linejoin="round" fill="none" transform="matrix(1 0 0 1.00057 822 244)"/><path d="M52.2169 97.824C52.2169 97.8899 52.1481 97.9333 52.0887 97.9046 52.0576 97.8897 52.0379 97.8584 52.0379 97.824L52.0379 89.4498C52.0379 89.3859 52.1029 89.3426 52.1618 89.3671 52.1952 89.381 52.2169 89.4136 52.2169 89.4498L52.2169 97.824Z" fill="#262C30" transform="matrix(1 0 0 1.00057 822 244)"/><path d="M52.9329 98.0255C52.9329 98.1573 52.7953 98.2439 52.6764 98.1868 52.6144 98.157 52.575 98.0942 52.575 98.0255L52.575 89.8077C52.575 89.68 52.7048 89.5934 52.8228 89.6425 52.8895 89.6703 52.9329 89.7355 52.9329 89.8077L52.9329 98.0255Z" fill="#262C30" transform="matrix(1 0 0 1.00057 822 244)"/><path d="M53.6489 98.3692C53.6489 98.5009 53.5113 98.5875 53.3925 98.5305 53.3305 98.5007 53.291 98.4379 53.291 98.3692L53.291 90.1061C53.291 89.9783 53.4209 89.8917 53.5388 89.9409 53.6055 89.9686 53.6489 90.0339 53.6489 90.1061L53.6489 98.3692Z" fill="#262C30" transform="matrix(1 0 0 1.00057 822 244)"/><path d="M54.365 98.7129C54.365 98.8446 54.2273 98.9312 54.1085 98.8742 54.0465 98.8444 54.007 98.7816 54.007 98.7129L54.007 90.4044C54.007 90.2767 54.1369 90.1901 54.2548 90.2392 54.3215 90.267 54.365 90.3322 54.365 90.4044L54.365 98.7129Z" fill="#262C30" transform="matrix(1 0 0 1.00057 822 244)"/><path d="M55.081 99.0565C55.081 99.1883 54.9434 99.2749 54.8246 99.2179 54.7625 99.1881 54.723 99.1253 54.723 99.0565L54.723 90.7028C54.723 90.575 54.853 90.4884 54.9709 90.5376 55.0375 90.5653 55.081 90.6305 55.081 90.7028L55.081 99.0565Z" fill="#262C30" transform="matrix(1 0 0 1.00057 822 244)"/><path d="M55.797 99.4002C55.797 99.532 55.6594 99.6186 55.5406 99.5616 55.4785 99.5318 55.439 99.469 55.439 99.4002L55.439 91.0011C55.439 90.8734 55.569 90.7868 55.6869 90.8359 55.7535 90.8637 55.797 90.9289 55.797 91.0011L55.797 99.4002Z" fill="#262C30" transform="matrix(1 0 0 1.00057 822 244)"/><path d="M56.513 99.7438C56.513 99.8757 56.3754 99.9623 56.2566 99.9053 56.1945 99.8755 56.155 99.8127 56.155 99.7438L56.155 91.2995C56.155 91.1717 56.285 91.0851 56.4029 91.1343 56.4695 91.162 56.513 91.2272 56.513 91.2995L56.513 99.7438Z" fill="#262C30" transform="matrix(1 0 0 1.00057 822 244)"/><path d="M57.229 100.088C57.229 100.219 57.0914 100.306 56.9726 100.249 56.9105 100.219 56.871 100.156 56.871 100.088L56.871 91.5978C56.871 91.4701 57.001 91.3835 57.1189 91.4326 57.1856 91.4604 57.229 91.5256 57.229 91.5978L57.229 100.088Z" fill="#262C30" transform="matrix(1 0 0 1.00057 822 244)"/><path d="M57.9451 100.431C57.9451 100.563 57.8074 100.65 57.6886 100.593 57.6265 100.563 57.5871 100.5 57.5871 100.431L57.5871 91.8962C57.5871 91.7684 57.717 91.6818 57.8349 91.7309 57.9016 91.7587 57.9451 91.8239 57.9451 91.8962L57.9451 100.431Z" fill="#262C30" transform="matrix(1 0 0 1.00057 822 244)"/><path d="M58.6611 100.775C58.6611 100.907 58.5235 100.993 58.4046 100.936 58.3425 100.907 58.3031 100.844 58.3031 100.775L58.3031 92.1945C58.3031 92.0668 58.433 91.9802 58.5509 92.0293 58.6177 92.057 58.6611 92.1223 58.6611 92.1945L58.6611 100.775Z" fill="#262C30" transform="matrix(1 0 0 1.00057 822 244)"/><path d="M59.3771 101.119C59.3771 101.25 59.2395 101.337 59.1206 101.28 59.0585 101.25 59.0191 101.188 59.0191 101.119L59.0191 92.4929C59.0191 92.3651 59.149 92.2784 59.2669 92.3275 59.3337 92.3554 59.3771 92.4205 59.3771 92.4929L59.3771 101.119Z" fill="#262C30" transform="matrix(1 0 0 1.00057 822 244)"/><path d="M60.0931 101.462C60.0931 101.594 59.9555 101.681 59.8366 101.624 59.7745 101.594 59.7351 101.531 59.7351 101.462L59.7351 92.7912C59.7351 92.6635 59.865 92.5767 59.9829 92.6259 60.0497 92.6537 60.0931 92.7188 60.0931 92.7912L60.0931 101.462Z" fill="#262C30" transform="matrix(1 0 0 1.00057 822 244)"/><path d="M60.8091 101.806C60.8091 101.938 60.6715 102.024 60.5526 101.967 60.4907 101.938 60.4511 101.875 60.4511 101.806L60.4511 93.0895C60.4511 92.9618 60.581 92.8751 60.6989 92.9242 60.7657 92.9521 60.8091 93.0172 60.8091 93.0895L60.8091 101.806Z" fill="#262C30" transform="matrix(1 0 0 1.00057 822 244)"/><path d="M61.5252 102.15C61.5252 102.282 61.3875 102.368 61.2686 102.311 61.2067 102.281 61.1671 102.219 61.1671 102.15L61.1671 93.3879C61.1671 93.2601 61.297 93.1734 61.415 93.2226 61.4817 93.2504 61.5252 93.3155 61.5252 93.3879L61.5252 102.15Z" fill="#262C30" transform="matrix(1 0 0 1.00057 822 244)"/><path d="M62.2412 102.493C62.2412 102.625 62.1035 102.712 61.9848 102.655 61.9227 102.625 61.8831 102.562 61.8831 102.493L61.8831 93.6862C61.8831 93.5585 62.0132 93.4718 62.1311 93.5209 62.1977 93.5488 62.2412 93.6139 62.2412 93.6862L62.2412 102.493Z" fill="#262C30" transform="matrix(1 0 0 1.00057 822 244)"/><path d="M62.9572 102.837C62.9572 102.969 62.8195 103.056 62.7008 102.998 62.6387 102.969 62.5992 102.906 62.5992 102.837L62.5992 93.9845C62.5992 93.8568 62.7292 93.7701 62.8471 93.8193 62.9137 93.8471 62.9572 93.9122 62.9572 93.9846L62.9572 102.837Z" fill="#262C30" transform="matrix(1 0 0 1.00057 822 244)"/><path d="M63.6732 103.181C63.6732 103.313 63.5355 103.399 63.4168 103.342 63.3547 103.312 63.3152 103.25 63.3152 103.181L63.3152 94.2828C63.3152 94.1552 63.4452 94.0685 63.5631 94.1176 63.6297 94.1455 63.6732 94.2106 63.6732 94.2828L63.6732 103.181Z" fill="#262C30" transform="matrix(1 0 0 1.00057 822 244)"/><path d="M64.3892 103.524C64.3892 103.656 64.2515 103.743 64.1328 103.686 64.0707 103.656 64.0312 103.593 64.0312 103.524L64.0312 94.5812C64.0312 94.4534 64.1612 94.3668 64.2791 94.4159 64.3458 94.4438 64.3892 94.5089 64.3892 94.5812L64.3892 103.524Z" fill="#262C30" transform="matrix(1 0 0 1.00057 822 244)"/><path d="M65.1052 103.868C65.1052 104 64.9676 104.087 64.8488 104.03 64.7867 104 64.7473 103.937 64.7473 103.868L64.7473 94.8795C64.7473 94.7518 64.8772 94.6652 64.9951 94.7143 65.0618 94.7422 65.1052 94.8073 65.1052 94.8795L65.1052 103.868Z" fill="#262C30" transform="matrix(1 0 0 1.00057 822 244)"/><path d="M65.6422 104.268C65.6422 104.334 65.5734 104.377 65.514 104.349 65.4829 104.334 65.4633 104.303 65.4633 104.268L65.4633 95.0436C65.4633 94.9798 65.5282 94.9364 65.5871 94.961 65.6205 94.975 65.6422 95.0075 65.6422 95.0436L65.6422 104.268Z" fill="#262C30" transform="matrix(1 0 0 1.00057 822 244)"/><path d="M29.5573 159.421 47.5479 38.1291 47.7114 37.027 48.7043 36.5214 106.734 6.97907 112.287 8.9985 51.6569 39.865 33.6008 161.598 29.5573 159.421ZM73.3854 183.021 69.6331 181 87.1747 53.5305 87.3266 52.4268 88.314 51.9109 146.577 21.4674 152.076 23.467 91.3016 55.223 73.7088 183.065 73.3854 183.021Z" fill="#0E204B" fill-rule="evenodd" transform="matrix(1 0 0 1.00057 822 244)"/><path d="M77.2433 3.65957 71.7093 5.94426 162.346 45.8024 168.757 171.119 172.981 169.138 166.591 44.2514 166.523 42.9211 165.304 42.3849 77.2433 3.65957ZM145.789 181.894 139.382 56.6727 139.314 55.3424 138.095 54.8062 48.6407 15.468 43.1067 17.7527 135.136 58.2238 141.566 183.876 145.789 181.894Z" fill="#1E3264" fill-rule="evenodd" transform="matrix(1 0 0 1.00057 822 244)"/></g></g></g><path d="M740.5 194.5 740.5 457.205" stroke="#000000" stroke-width="1.33333" stroke-miterlimit="8" stroke-dasharray="5.33333 4" fill="none" fill-rule="evenodd" transform="matrix(1.0440534353256226, 0, 0, 1.0440534353256226, -611.2255971156364, -121.63744354248047)"/><path d="M740.5 457.5 930.117 550.696" stroke="#000000" stroke-width="1.33333" stroke-miterlimit="8" stroke-dasharray="5.33333 4" fill="none" fill-rule="evenodd" transform="matrix(1.0440534353256226, 0, 0, 1.0440534353256226, -611.2255971156364, -121.63744354248047)"/><path d="M695.5 196.5 695.5 480.026" stroke="#000000" stroke-width="1.33333" stroke-miterlimit="8" stroke-dasharray="5.33333 4" fill="none" fill-rule="evenodd" transform="matrix(1.0440534353256226, 0, 0, 1.0440534353256226, -611.2255971156364, -121.63744354248047)"/><path d="M695.5 479.5 930.627 596.257" stroke="#000000" stroke-width="1.33333" stroke-miterlimit="8" stroke-dasharray="5.33333 4" fill="none" fill-rule="evenodd" transform="matrix(1.0440534353256226, 0, 0, 1.0440534353256226, -611.2255971156364, -121.63744354248047)"/><path d="M0 0 117.827 56.6893" stroke="#000000" stroke-width="1.33333" stroke-miterlimit="8" stroke-dasharray="5.33333 4" fill="none" fill-rule="evenodd" transform="matrix(1.0440534353256226, 0, 0, -1.0440534353256226, 359.22210693359375, 452.789306640625)"/><path d="M0 0 117.185 57.663" stroke="#000000" stroke-width="1.33333" stroke-miterlimit="8" stroke-dasharray="5.33333 4" fill="none" fill-rule="evenodd" transform="matrix(1.0440534353256226, 0, 0, -1.0440534353256226, 359.22210693359375, 500.78863525390625)"/><path d="M649.5 193.5 649.5 502.6" stroke="#000000" stroke-width="1.33333" stroke-miterlimit="8" stroke-dasharray="5.33333 4" fill="none" fill-rule="evenodd" transform="matrix(1.0440534353256226, 0, 0, 1.0440534353256226, -611.2255971156364, -121.63744354248047)"/><path d="M650.5 502.5 931.12 641.757" stroke="#000000" stroke-width="1.33333" stroke-miterlimit="8" stroke-dasharray="5.33333 4" fill="none" fill-rule="evenodd" transform="matrix(1.0440534353256226, 0, 0, 1.0440534353256226, -611.2255971156364, -121.63744354248047)"/><path d="M0 0 117.094 57.2044" stroke="#000000" stroke-width="1.33333" stroke-miterlimit="8" stroke-dasharray="5.33333 4" fill="none" fill-rule="evenodd" transform="matrix(1.0440534353256226, 0, 0, -1.0440534353256226, 360.26611328125, 548.3358154296875)"/><path d="M0 0 229 0.000104987" stroke="#000000" stroke-width="1.33333" stroke-miterlimit="8" stroke-dasharray="5.33333 4" fill="none" fill-rule="evenodd" transform="matrix(-1.0440534353256226, 0, 0, 1.0440534353256226, 244.376220703125, 80.38690185546875)"/><path d="M785.5 194.5 785.5 435.072" stroke="#000000" stroke-width="1.33333" stroke-miterlimit="8" stroke-dasharray="5.33333 4" fill="none" fill-rule="evenodd" transform="matrix(1.0440534353256226, 0, 0, 1.0440534353256226, -611.2255971156364, -121.63744354248047)"/><path d="M786.5 435.5 931.373 505.612" stroke="#000000" stroke-width="1.33333" stroke-miterlimit="8" stroke-dasharray="5.33333 4" fill="none" fill-rule="evenodd" transform="matrix(1.0440534353256226, 0, 0, 1.0440534353256226, -611.2255971156364, -121.63744354248047)"/><path d="M0 0 118.499 56.0002" stroke="#000000" stroke-width="1.33333" stroke-miterlimit="8" stroke-dasharray="5.33333 4" fill="none" fill-rule="evenodd" transform="matrix(1.0440534353256226, 0, 0, -1.0440534353256226, 360.26611328125, 406.131591796875)"/><path d="M0 0 71.9838 72.7122" stroke="#000000" stroke-width="1.33333" stroke-miterlimit="8" stroke-dasharray="5.33333 4" fill="none" fill-rule="evenodd" transform="matrix(1.0440534353256226, 0, 0, -1.0440534353256226, 161.89599609375, 76.95405578613281)"/><path d="M0 0 71.9838 72.7122" stroke="#000000" stroke-width="1.33333" stroke-miterlimit="8" stroke-dasharray="5.33333 4" fill="none" fill-rule="evenodd" transform="matrix(1.0440534353256226, 0, 0, -1.0440534353256226, 209.92242431640625, 76.95405578613281)"/></svg>