<?xml version="1.0" encoding="utf-8"?><svg id="master-artboard" viewBox="0 0 246.69198608398438 218.04234313964844" version="1.1" xmlns="http://www.w3.org/2000/svg" x="0px" y="0px" style="enable-background:new 0 0 336 235.2;" width="246.69198608398438px" height="218.04234313964844px" xmlns:xlink="http://www.w3.org/1999/xlink"><defs><clipPath id="clip0"><path d="M 0 0 H 1280 V 720 H 0 V 0 Z"/></clipPath><clipPath id="clip1"><path d="M 81 277 H 371 V 547 H 81 V 277 Z"/></clipPath><clipPath id="clip2"><path d="M 81 277 H 371 V 547 H 81 V 277 Z"/></clipPath><clipPath id="clip3"><path d="M 81 277 H 371 V 547 H 81 V 277 Z"/></clipPath><clipPath id="clip4"><path d="M 148 290 H 332 V 481 H 148 V 290 Z"/></clipPath><clipPath id="clip5"><path d="M 148 290 H 332 V 481 H 148 V 290 Z"/></clipPath><clipPath id="clip6"><path d="M 148 290 H 332 V 481 H 148 V 290 Z"/></clipPath><clipPath id="clip7"><path d="M 0 0 H 609600 V 1219200 H 0 V 0 Z"/></clipPath><image width="72" height="146" preserveAspectRatio="none" id="img8" xlink:href=""/><clipPath id="clip9"><path d="M 0 0 H 601249 V 1219200 H 0 V 0 Z"/></clipPath><clipPath id="clip10"><path d="M 0 0 H 495369 V 285790 H 0 V 0 Z"/></clipPath><image width="52" height="30" preserveAspectRatio="none" id="img11" xlink:href=""/><clipPath id="clip12"><path d="M 0 0 H 495369 V 285790 H 0 V 0 Z"/></clipPath><clipPath id="clip13"><path d="M 765 290 H 1055 V 559 H 765 V 290 Z"/></clipPath><clipPath id="clip14"><path d="M 765 290 H 1055 V 559 H 765 V 290 Z"/></clipPath><clipPath id="clip15"><path d="M 765 290 H 1055 V 559 H 765 V 290 Z"/></clipPath><clipPath id="clip16"><path d="M 830 302 H 1013 V 493 H 830 V 302 Z"/></clipPath><clipPath id="clip17"><path d="M 830 302 H 1013 V 493 H 830 V 302 Z"/></clipPath><clipPath id="clip18"><path d="M 830 302 H 1013 V 493 H 830 V 302 Z"/></clipPath><clipPath id="clip19"><path d="M 0 0 H 600075 V 1228720 H 0 V 0 Z"/></clipPath><clipPath id="clip20"><path d="M 0 0 H 600075 V 1216820 H 0 V 0 Z"/></clipPath><clipPath id="clip21"><path d="M 0 0 H 495369 V 285790 H 0 V 0 Z"/></clipPath><image width="52" height="30" preserveAspectRatio="none" id="img22" xlink:href=""/><clipPath id="clip23"><path d="M 0 0 H 495369 V 285790 H 0 V 0 Z"/></clipPath></defs><rect id="ee-background" x="0" y="0" width="246.69198608398438" height="218.04234313964844" style="fill: white; fill-opacity: 0; pointer-events: none;"/><path d="M 0 0 H 1280 V 720 H 0 V 0 Z" fill="#FFFFFF" transform="matrix(0.9330164790153503, 0, 0, 0.9330164790153503, -85.73753711807967, -273.8820152282715)"/><g clip-path="url(#clip1)" transform="matrix(0.9330164790153503, 0, 0, 0.9330164790153503, -85.73753711807967, -273.8820152282715)"><g clip-path="url(#clip2)"><g clip-path="url(#clip3)"><path d="M17.7506 173.861 17.7491 63.8906 172.521 133.946 172.521 247.176 17.7506 173.861Z" fill="#ABD8E8" fill-rule="evenodd" transform="matrix(1 0 0 1.00138 81 277)"/><path d="M109.352 22.635 17.7222 63.6827 172.496 133.738 270.641 90.8859 109.352 22.635Z" fill="#C5FBFC" fill-rule="evenodd" transform="matrix(1 0 0 1.00138 81 277)"/><path d="M265.785 201.24 172.525 247.176 172.525 133.946 270.667 91.0945 265.785 201.24Z" fill="#708D97" fill-rule="evenodd" transform="matrix(1 0 0 1.00138 81 277)"/><path d="M17.7502 173.86 17.7478 91.5501 68.3733 175.787 172.52 161.605 172.521 247.173 17.7502 173.86Z" fill="#D3B694" fill-rule="evenodd" transform="matrix(1 0 0 1.00138 81 277)"/><path d="M265.785 201.237 172.525 247.173 172.526 162.299 269.41 119.569 265.785 201.237Z" fill="#8A7760" fill-rule="evenodd" transform="matrix(1 0 0 1.00138 81 277)"/><path d="M103.98 157.782C103.98 157.027 104.754 156.521 105.445 156.824L164.467 182.724C165.227 183.057 165.717 183.808 165.717 184.638L165.717 229.966C165.717 230.739 164.908 231.244 164.214 230.906L105.155 202.146C104.436 201.796 103.98 201.066 103.98 200.267L103.98 157.782Z" fill="#FFFFFF" fill-rule="evenodd" transform="matrix(1 0 0 1.00138 81 277)"/><path d="M155.433 193.911 112.654 174.217" stroke="#3B4A57" stroke-width="3.96653" stroke-linecap="round" stroke-linejoin="round" fill="none" transform="matrix(1 0 0 1.00138 81 277)"/><path d="M155.433 210.983 112.654 191.29" stroke="#3B4A57" stroke-width="3.96653" stroke-linecap="round" stroke-linejoin="round" fill="none" transform="matrix(1 0 0 1.00138 81 277)"/><path d="M36.3786 117.476 74.7184 135.08C75.1432 135.275 74.4726 134.967 75.6002 135.485 75.6002 135.485 75.6115 133.792 75.6141 133.389L71.8145 126.144C71.5018 125.545 71.103 124.995 70.6477 124.533 70.1925 124.072 69.6926 123.711 69.1855 123.48L42.0319 111.012C41.5248 110.779 41.0233 110.679 40.5646 110.721 40.106 110.762 39.7023 110.945 39.3836 111.254L35.5129 114.977C35.51 115.379 35.4988 117.073 35.4988 117.073 35.4988 117.073 35.9541 117.281 36.3786 117.476Z" fill="#3B4A57" transform="matrix(1 0 0 1.00138 81 277)"/><path d="M74.6923 138.953 36.3525 121.349C36.0533 121.212 35.7656 121.216 35.5526 121.361 35.3395 121.506 35.2185 121.78 35.2162 122.122L34.9237 165.993C34.9168 167.018 34.9063 168.573 34.8978 169.863 36.0254 170.381 37.3835 171.004 38.2807 171.416L49.5572 176.594C49.8563 176.731 50.6848 177.112 50.6848 177.112 50.6848 177.112 50.6912 176.163 50.6934 175.821L50.7278 170.66C50.7369 169.292 51.221 168.196 52.0733 167.618 52.9257 167.038 54.0766 167.021 55.2728 167.57 56.4691 168.12 57.6128 169.19 58.4523 170.546 59.2917 171.903 59.7581 173.433 59.749 174.802L59.7146 179.963C59.7123 180.306 59.706 181.254 59.706 181.254 59.706 181.254 60.5345 181.635 60.8336 181.771L72.1101 186.949C73.0073 187.36 74.3653 187.985 75.493 188.502 75.5016 187.212 75.5119 185.658 75.5188 184.632L75.8113 140.76C75.8135 140.419 75.697 140.036 75.4871 139.697 75.2773 139.358 74.9914 139.09 74.6923 138.953ZM46.3033 155.686C46.301 156.028 46.2948 156.976 46.2948 156.976 46.2948 156.976 45.4661 156.596 45.1671 156.459L40.6566 154.388C40.3575 154.25 39.5289 153.87 39.5289 153.87 39.5289 153.87 39.5351 152.922 39.5374 152.58L39.5719 147.418C39.5788 146.391 39.9417 145.57 40.5809 145.137 41.2203 144.702 42.0834 144.688 42.9806 145.101 43.8778 145.513 44.7356 146.316 45.3652 147.333 45.9947 148.351 46.3446 149.499 46.3378 150.524L46.3033 155.686ZM46.4066 140.202C46.4043 140.545 46.398 141.492 46.398 141.492 46.398 141.492 45.5694 141.113 45.2703 140.975L40.7597 138.904C40.4608 138.766 39.6321 138.386 39.6321 138.386 39.6321 138.386 39.6384 137.438 39.6407 137.096L39.6751 131.934C39.6819 130.909 40.0449 130.087 40.6842 129.653 41.3234 129.218 42.1867 129.205 43.0839 129.617 43.9811 130.029 44.8388 130.832 45.4684 131.849 46.098 132.867 46.4478 134.015 46.441 135.042L46.4066 140.202ZM58.7074 161.381C58.7051 161.724 58.6988 162.672 58.6988 162.672 58.6988 162.672 57.8702 162.291 57.5711 162.154L53.0605 160.082C52.7615 159.946 51.9329 159.565 51.9329 159.565 51.9329 159.565 51.9392 158.617 51.9415 158.275L51.9759 153.114C51.9829 152.087 52.3458 151.266 52.985 150.831 53.6244 150.396 54.4875 150.384 55.3847 150.796 56.2819 151.207 57.1397 152.01 57.7692 153.028 58.3988 154.045 58.7486 155.193 58.7418 156.22L58.7074 161.381ZM58.8107 145.898C58.8084 146.24 58.8021 147.188 58.8021 147.188 58.8021 147.188 57.9735 146.807 57.6744 146.67L53.1638 144.6C52.8647 144.462 52.0362 144.081 52.0362 144.081 52.0387 143.703 52.0425 143.133 52.0448 142.791L52.0792 137.63C52.086 136.603 52.449 135.782 53.0883 135.347 53.7275 134.914 54.5907 134.9 55.4879 135.313 56.3851 135.725 57.2429 136.528 57.8725 137.544 58.5021 138.561 58.8519 139.709 58.8451 140.736L58.8107 145.898ZM71.1115 167.077C71.1092 167.419 71.1028 168.367 71.1028 168.367 71.1028 168.367 70.2743 167.987 69.9752 167.849L65.4646 165.778C65.1656 165.64 64.337 165.26 64.337 165.26 64.3395 164.883 64.3433 164.313 64.3456 163.97L64.38 158.809C64.3868 157.783 64.7498 156.961 65.3891 156.527 66.0283 156.092 66.8916 156.079 67.7888 156.491 68.686 156.903 69.5437 157.706 70.1733 158.723 70.8029 159.741 71.1527 160.889 71.1459 161.916L71.1115 167.077ZM71.2147 151.593C71.2124 151.935 71.2087 152.505 71.2061 152.883 71.2061 152.883 70.3775 152.503 70.0785 152.365L65.5679 150.294C65.2688 150.158 64.4403 149.777 64.4403 149.777 64.4403 149.777 64.4466 148.829 64.4489 148.486L64.4833 143.325C64.4901 142.299 64.8531 141.478 65.4924 141.043 66.1316 140.608 66.9948 140.596 67.892 141.007 68.7892 141.419 69.647 142.222 70.2766 143.24 70.9061 144.257 71.256 145.405 71.2492 146.432L71.2147 151.593Z" fill="#3B4A57" transform="matrix(1 0 0 1.00138 81 277)"/></g></g></g><g clip-path="url(#clip4)" transform="matrix(0.9330164790153503, 0, 0, 0.9330164790153503, -85.73753711807967, -273.8820152282715)"><g clip-path="url(#clip5)"><g clip-path="url(#clip6)"><path d="M105.417 15.1417C85.2917 15.1417 69 31.4333 69 51.5583L69 89.7 51.9417 72.8333C49.6417 70.725 46.1917 70.725 43.8917 73.025 41.7833 75.1333 41.5917 78.775 43.7 81.075L70.9167 107.908C71.875 108.867 73.2167 109.442 74.5583 109.633L74.9417 109.633 75.5167 109.633 76.0917 109.633 76.475 109.442C76.6667 109.442 76.8583 109.25 77.05 109.25L77.05 109.25C77.8167 109.058 78.3917 108.483 78.9667 108.1L106.183 80.8833C108.1 78.5833 107.908 75.325 105.8 73.2167 103.692 71.1083 100.433 70.9167 98.1333 72.8333L80.5 90.275 80.5 51.5583C80.5 37.7583 91.6167 26.6417 105.417 26.6417 119.217 26.6417 130.333 37.7583 130.333 51.5583L130.333 162.917C130.333 166.175 132.825 168.667 136.083 168.667 139.342 168.667 141.833 166.175 141.833 162.917L141.833 51.5583C141.833 31.4333 125.542 15.1417 105.417 15.1417Z" fill="#7D2332" transform="matrix(1 0 0 1.03804 148 290)"/></g></g></g><g clip-path="url(#clip7)" transform="matrix(0.00009795460209716111, 0, 0, 0.00009795460209716111, 153.11466217041016, 61.07086181640625)"><g clip-path="url(#clip9)" transform="matrix(1.01389 0 0 1 0 -0.25)"><use width="100%" height="100%" transform="scale(8350.68 8350.68)" xlink:href="#img8"/></g></g><g clip-path="url(#clip10)" transform="matrix(0.00009003924787975848, 0.00003857482079183683, -0.00003857482079183683, 0.00009003924787975848, 158.98612213134766, 33.541259765625)"><g clip-path="url(#clip12)" transform="matrix(1 2.8769e-08 1.02703e-08 1 0 0)"><use width="100%" height="100%" transform="scale(9526.33 9526.33)" xlink:href="#img11"/></g></g></svg>